# xmcd
#
# Track frame offsets: 
#        150
#        24955
#        46825
#        61755
#        87220
#        107202
#        125872
#        149447
#        173450
#        194110
#        220205
#
# Disc length: 3246 seconds
#
# Revision: 3
# Processed by: cddbd v1.5.2PL0 Copyright (c) Steve Scherf et al.
# Submitted via: ExactAudioCopy v0.95a5
#
DISCID=9b0cac0b
DTITLE=The Griswalds - All The Way Down
DYEAR=1996
DGENRE=Blues
TTITLE0=All The Way Down
TTITLE1=Can't Break Away
TTITLE2=Foot Stompin'
TTITLE3=Let Go
TTITLE4=Big Daddy Cool
TTITLE5=Aunt Nancey's Bull
TTITLE6=My Love Don't Mean A Thing
TTITLE7=Lil Bonnie Blue
TTITLE8=What The Fool Made Me Do
TTITLE9=The Good, The Bad, The Ugly
TTITLE10=What I Say Is Right
EXTD=ID3G: 0
EXTT0=
EXTT1=
EXTT2=
EXTT3=
EXTT4=
EXTT5=
EXTT6=
EXTT7=
EXTT8=
EXTT9=
EXTT10=
PLAYORDER=
